<?xml version="1.0" standalone="no"?>
<svg t="1784255051615" class="icon" viewBox="0 0 1024 1024" version="1.1" xmlns="http://www.w3.org/2000/svg" p-id="15887" xmlns:xlink="http://www.w3.org/1999/xlink" width="200" height="200">
    <!-- 主背景圆（浅蓝色半透明） -->
    <path d="M512 512m-512 0a512 512 0 1 0 1024 0 512 512 0 1 0-1024 0Z" fill="#1990FF" opacity=".2" p-id="15888"></path>

    <!-- 主中心圆（蓝色） -->
    <path d="M512 512m-409.6 0a409.6 409.6 0 1 0 819.2 0 409.6 409.6 0 1 0-819.2 0Z" fill="#1990FF" p-id="15889"></path>

    <!-- 左上角圆点 - 已删除 -->
    <!-- <path d="M47.786667 75.093333m-47.786667 0a47.786667 47.786667 0 1 0 95.573333 0 47.786667 47.786667 0 1 0-95.573333 0Z" fill="#1990FF" p-id="15890"></path> -->

    <!-- 右下角圆点 - 已删除 -->
    <!-- <path d="M1003.52 921.6m-20.48 0a20.48 20.48 0 1 0 40.96 0 20.48 20.48 0 1 0-40.96 0Z" fill="#1990FF" p-id="15891"></path> -->

    <!-- 白色填充区域（带有渐变条纹） -->
    <path d="M259.413333 231.970133h505.173334v196.881067H259.413333z" fill="#FFFFFF" p-id="15926"></path>

    <!-- 中间的橙色M形状图标 -->
    <path d="M689.493333 313.890133H334.506667v177.493334h78.506666v-122.88h61.44v122.88h75.093334v-122.88h61.44v122.88H689.493333v-177.493334z" fill="#FF9600" p-id="15927"></path>

    <!-- 底部蓝色装饰形状 -->
    <path d="M211.626667 458.001067V457.386667l0.477866 155.4432a27.306667 27.306667 0 0 0 12.151467 22.596266l104.2432 69.495467a27.306667 27.306667 0 0 1 12.151467 22.664533V771.413333a27.306667 27.306667 0 0 0 27.306666 27.306667h288.085334a27.306667 27.306667 0 0 0 12.151467-27.306667v-43.758933a27.306667 27.306667 0 0 1 12.151467-22.664533l104.2432-69.495467a27.306667 27.306667 0 0 0 12.151467-22.596267L812.373333 457.386667v0.477866z" fill="#70CAFF" p-id="15928"></path>
</svg>