<?xml version="1.0" standalone="no"?><!DOCTYPE svg PUBLIC "-//W3C//DTD SVG 1.1//EN" "http://www.w3.org/Graphics/SVG/1.1/DTD/svg11.dtd"><svg t="1784259371549" class="icon" viewBox="0 0 1024 1024" version="1.1" xmlns="http://www.w3.org/2000/svg" p-id="1803" xmlns:xlink="http://www.w3.org/1999/xlink" width="200" height="200"><path d="M480 245.344h512v405.344H480z" fill="#E0EBFE" p-id="1804"></path><path d="M928 96H544c-52.928 0-96 43.072-96 96v192h-62.464a32 32 0 1 0 0 64H448v256c0 52.928 43.072 96 96 96h96v35.168a32 32 0 1 0 64 0V800h224c52.928 0 96-43.072 96-96V192c0-52.928-43.072-96-96-96z m32 608c0 17.632-14.336 32-32 32H544c-17.664 0-32-14.368-32-32v-37.344h448V704z m0-69.312H512V261.312h448v373.376z m0-405.376H512V192c0-17.632 14.336-32 32-32h384c17.664 0 32 14.368 32 32v37.344zM227.616 448h63.168a32 32 0 1 0 0-64H227.616a32 32 0 1 0 0 64zM608 960c17.472 0 34.592-4.736 49.504-13.76a32 32 0 1 0-32.992-54.784A32.128 32.128 0 0 1 608 896h-28.48a32 32 0 1 0 0 64H608zM33.856 911.36a32 32 0 0 0 31.072-39.68A31.872 31.872 0 0 1 64 864v-47.648a32 32 0 1 0-64 0V864c0 7.776 0.96 15.52 2.816 23.04a32 32 0 0 0 31.04 24.32zM484.704 960a32 32 0 1 0 0-64h-63.136a32 32 0 1 0 0 64h63.136zM132.832 384H96c-13.312 0-26.24 2.688-38.336 8a32 32 0 1 0 25.568 58.656A31.936 31.936 0 0 1 96 448h36.832a32 32 0 1 0 0-64zM326.816 896H263.616a32 32 0 1 0 0 64h63.2a32 32 0 1 0 0-64zM32 753.6a32 32 0 0 0 32-32v-63.168a32 32 0 1 0-64 0v63.168a32 32 0 0 0 32 32zM168.864 896H105.728a32 32 0 1 0 0 64h63.136a32 32 0 1 0 0-64zM32 595.68a32 32 0 0 0 32-32V500.48a32 32 0 1 0-64 0v63.168a32 32 0 0 0 32 32z" fill="#5465CF" p-id="1805"></path></svg>