<?xml version="1.0" standalone="no"?><!DOCTYPE svg PUBLIC "-//W3C//DTD SVG 1.1//EN" "http://www.w3.org/Graphics/SVG/1.1/DTD/svg11.dtd"><svg t="1784259344945" class="icon" viewBox="0 0 1024 1024" version="1.1" xmlns="http://www.w3.org/2000/svg" p-id="1632" xmlns:xlink="http://www.w3.org/1999/xlink" width="200" height="200"><path d="M896 128H128a64 64 0 0 0-64 64v400h896V192a64 64 0 0 0-64-64z" fill="#E0EBFE" p-id="1633"></path><path d="M892.544 96H131.456A99.584 99.584 0 0 0 32 195.456v505.088A99.584 99.584 0 0 0 131.456 800h277.504l-19.2 96H352a32 32 0 0 0 0 64h320a32 32 0 0 0 0-64h-37.76l-19.2-96h277.504A99.584 99.584 0 0 0 992 700.544V195.456A99.584 99.584 0 0 0 892.544 96zM455.04 896l19.2-96h75.52l19.2 96h-113.92zM928 700.544A35.52 35.52 0 0 1 892.544 736H131.456A35.52 35.52 0 0 1 96 700.544V608h832v92.544zM928 576H96V195.456A35.52 35.52 0 0 1 131.456 160h761.088A35.52 35.52 0 0 1 928 195.456V576z" fill="#5465CF" p-id="1634"></path><path d="M512 672m-32 0a32 32 0 1 0 64 0 32 32 0 1 0-64 0Z" fill="#5465CF" p-id="1635"></path></svg>