<?xml version="1.0" standalone="no"?><!DOCTYPE svg PUBLIC "-//W3C//DTD SVG 1.1//EN" "http://www.w3.org/Graphics/SVG/1.1/DTD/svg11.dtd"><svg t="1784259436377" class="icon" viewBox="0 0 1024 1024" version="1.1" xmlns="http://www.w3.org/2000/svg" p-id="2144" xmlns:xlink="http://www.w3.org/1999/xlink" width="200" height="200"><path d="M96 128h256v384H96zM704 704h192v128h-192z" fill="#E0EBFE" p-id="2145"></path><path d="M128 96H96a32 32 0 0 0-32 32v384a32 32 0 0 0 32 32h96v320c0 88.224 71.776 160 160 160h320c88.224 0 160-71.776 160-160h64a32 32 0 0 0 32-32v-128a32 32 0 0 0-32-32v-64a32 32 0 1 0-64 0v64h-64v-64a32 32 0 1 0-64 0v64a32 32 0 0 0-32 32v128a32 32 0 0 0 32 32h64c0 52.928-43.072 96-96 96H352c-52.928 0-96-43.072-96-96V544h96a32 32 0 0 0 32-32V128a32 32 0 0 0-32-32h-32V32a32 32 0 1 0-64 0v64H192V32a32 32 0 1 0-64 0v64z m608 704v-64h128v64h-128zM320 160v320H128V160h192z" fill="#5465CF" p-id="2146"></path></svg>