<?xml version="1.0" standalone="no"?><!DOCTYPE svg PUBLIC "-//W3C//DTD SVG 1.1//EN" "http://www.w3.org/Graphics/SVG/1.1/DTD/svg11.dtd"><svg t="1784259411866" class="icon" viewBox="0 0 1024 1024" version="1.1" xmlns="http://www.w3.org/2000/svg" p-id="1973" xmlns:xlink="http://www.w3.org/1999/xlink" width="200" height="200"><path d="M854.944 96H169.28C146.56 96 128 112.8 128 133.28v373.44C128 527.168 146.56 544 169.28 544H852.16c22.72 0 41.408-16.8 41.536-37.312L896 133.28C896.096 112.8 877.632 96 854.944 96z" fill="#E0EBFE" p-id="1974"></path><path d="M100.448 960h824.32c22.272 0 42.176-8.864 54.592-24.32 10.912-13.504 15.04-31.104 11.232-48.288l-55.2-252.48C928.032 601.376 893.44 576 854.752 576h-2.624c40.32 0 73.28-31.008 73.536-69.12L928 133.44a66.784 66.784 0 0 0-19.872-47.68A75.36 75.36 0 0 0 854.944 64H169.28C128.864 64 96 95.104 96 133.312v373.376C96 544.896 128.864 576 169.312 576h-12.864c-38.592 0-73.504 26.56-79.488 60.48l-44.096 252.064c-2.976 17.28 1.6 34.176 12.864 47.616 12.736 15.168 32.672 23.84 54.72 23.84zM160 506.688V133.312C160 131.488 163.616 128 169.312 128h685.632c3.072 0 6.016 1.088 9.056 5.12l-2.336 373.408c0 1.856-3.712 5.472-9.536 5.472H169.28C163.616 512 160 508.512 160 506.688z m-20.064 141.12C140.8 645.44 147.488 640 156.48 640h698.336c9.696 0 17.216 6.24 18.112 8.608l54.048 247.264a17.568 17.568 0 0 1-2.208 0.128H100.416a16.096 16.096 0 0 1-3.776-0.416l43.296-247.776z" fill="#5465CF" p-id="1975"></path><path d="M208 832h608a16 16 0 1 0 0-32h-608a16 16 0 1 0 0 32zM378.016 736H784a16 16 0 1 0 0-32H378.016a16 16 0 1 0 0 32zM240 736h68.544a16 16 0 1 0 0-32H240a16 16 0 1 0 0 32z" fill="#5465CF" p-id="1976"></path></svg>